# xmcd
#
# Track frame offsets:
# 150
# 12654
# 36467
# 51354
# 64682
# 85236
# 95895
# 112006
# 130700
# 148215
# 167227
# 185516
# 200330
# 215129
# 230421
# 249063
# 270611
# 281081
# 296541
#
# Disc length: 4213 seconds
#
#
# Revision: 0
# Processed by: cddbd v1.5.2PL0 Copyright (c) Steve Scherf et al.
# Submitted via: FreeRIP 2.945 
#
DISCID=2e107313
DTITLE=King-LR2003 - Keeping-Watch09
DYEAR=2003
DGENRE=Death Metal
TTITLE0=0901
TTITLE1=0902
TTITLE2=0903
TTITLE3=0904
TTITLE4=0905
TTITLE5=0906
TTITLE6=0907
TTITLE7=0908
TTITLE8=0909
TTITLE9=0910
TTITLE10=0911
TTITLE11=0912
TTITLE12=0913
TTITLE13=0914
TTITLE14=0915
TTITLE15=0916
TTITLE16=0917
TTITLE17=0918
TTITLE18=0919
EXTD=by Laurie R. King - read by Richard Ferrone\nrecorded books 14 CDs death misc
EXTT0=
EXTT1=
EXTT2=
EXTT3=
EXTT4=
EXTT5=
EXTT6=
EXTT7=
EXTT8=
EXTT9=
EXTT10=
EXTT11=
EXTT12=
EXTT13=
EXTT14=
EXTT15=
EXTT16=
EXTT17=
EXTT18=
PLAYORDER=
